<mxfile host="app.diagrams.net" modified="2022-06-17T11:00:26.140Z" agent="5.0 (Windows NT 10.0; Win64; x64) AppleWebKit/537.36 (KHTML, like Gecko) Chrome/102.0.0.0 Safari/537.36" etag="Ffdk32Rz2PvWdzQrTik5" version="20.0.1" type="github">
  <diagram id="4PGjSugYwlGCpoBudXAf" name="Страница 1">
    <mxGraphModel dx="4382" dy="1905" grid="1" gridSize="10" guides="1" tooltips="1" connect="1" arrows="1" fold="1" page="1" pageScale="1" pageWidth="827" pageHeight="1169" math="0" shadow="0">
      <root>
        <mxCell id="0" />
        <mxCell id="1" parent="0" />
        <mxCell id="V9b17PjdUef4UxKGJl2k-6" style="edgeStyle=orthogonalEdgeStyle;rounded=0;orthogonalLoop=1;jettySize=auto;html=1;exitX=0.5;exitY=1;exitDx=0;exitDy=0;entryX=1;entryY=0.5;entryDx=0;entryDy=0;" parent="1" source="V9b17PjdUef4UxKGJl2k-1" target="V9b17PjdUef4UxKGJl2k-2" edge="1">
          <mxGeometry relative="1" as="geometry" />
        </mxCell>
        <mxCell id="V9b17PjdUef4UxKGJl2k-1" value="ws://localhost:12345" style="rounded=0;whiteSpace=wrap;html=1;" parent="1" vertex="1">
          <mxGeometry x="349" y="40" width="130" height="60" as="geometry" />
        </mxCell>
        <mxCell id="nox7CIe5ivODT0A3euPJ-19" style="edgeStyle=orthogonalEdgeStyle;rounded=0;orthogonalLoop=1;jettySize=auto;html=1;exitX=0.5;exitY=1;exitDx=0;exitDy=0;entryX=1;entryY=0.5;entryDx=0;entryDy=0;" edge="1" parent="1" source="V9b17PjdUef4UxKGJl2k-2" target="V9b17PjdUef4UxKGJl2k-63">
          <mxGeometry relative="1" as="geometry" />
        </mxCell>
        <mxCell id="nox7CIe5ivODT0A3euPJ-22" style="edgeStyle=orthogonalEdgeStyle;rounded=0;orthogonalLoop=1;jettySize=auto;html=1;exitX=0.5;exitY=1;exitDx=0;exitDy=0;entryX=1;entryY=0.5;entryDx=0;entryDy=0;" edge="1" parent="1" source="V9b17PjdUef4UxKGJl2k-2" target="nox7CIe5ivODT0A3euPJ-20">
          <mxGeometry relative="1" as="geometry" />
        </mxCell>
        <mxCell id="nox7CIe5ivODT0A3euPJ-39" style="edgeStyle=orthogonalEdgeStyle;rounded=0;orthogonalLoop=1;jettySize=auto;html=1;exitX=0.5;exitY=1;exitDx=0;exitDy=0;entryX=0.5;entryY=0;entryDx=0;entryDy=0;fontSize=9;" edge="1" parent="1" source="V9b17PjdUef4UxKGJl2k-2" target="nox7CIe5ivODT0A3euPJ-38">
          <mxGeometry relative="1" as="geometry" />
        </mxCell>
        <mxCell id="V9b17PjdUef4UxKGJl2k-2" value="backend : Python" style="rounded=0;whiteSpace=wrap;html=1;" parent="1" vertex="1">
          <mxGeometry x="229" y="140" width="120" height="60" as="geometry" />
        </mxCell>
        <mxCell id="V9b17PjdUef4UxKGJl2k-8" style="edgeStyle=orthogonalEdgeStyle;rounded=0;orthogonalLoop=1;jettySize=auto;html=1;exitX=0;exitY=0.5;exitDx=0;exitDy=0;entryX=0.5;entryY=1;entryDx=0;entryDy=0;" parent="1" source="V9b17PjdUef4UxKGJl2k-3" target="V9b17PjdUef4UxKGJl2k-1" edge="1">
          <mxGeometry relative="1" as="geometry" />
        </mxCell>
        <mxCell id="nox7CIe5ivODT0A3euPJ-72" style="edgeStyle=orthogonalEdgeStyle;rounded=0;orthogonalLoop=1;jettySize=auto;html=1;exitX=0.5;exitY=1;exitDx=0;exitDy=0;entryX=0;entryY=0.5;entryDx=0;entryDy=0;fontSize=9;" edge="1" parent="1" source="V9b17PjdUef4UxKGJl2k-3" target="nox7CIe5ivODT0A3euPJ-48">
          <mxGeometry relative="1" as="geometry" />
        </mxCell>
        <mxCell id="nox7CIe5ivODT0A3euPJ-73" style="edgeStyle=orthogonalEdgeStyle;rounded=0;orthogonalLoop=1;jettySize=auto;html=1;exitX=0.5;exitY=1;exitDx=0;exitDy=0;entryX=0;entryY=0.5;entryDx=0;entryDy=0;fontSize=9;" edge="1" parent="1" source="V9b17PjdUef4UxKGJl2k-3" target="nox7CIe5ivODT0A3euPJ-55">
          <mxGeometry relative="1" as="geometry" />
        </mxCell>
        <mxCell id="V9b17PjdUef4UxKGJl2k-3" value="frontend : JavaScript/HTML/CSS" style="rounded=0;whiteSpace=wrap;html=1;" parent="1" vertex="1">
          <mxGeometry x="479" y="140" width="120" height="60" as="geometry" />
        </mxCell>
        <mxCell id="V9b17PjdUef4UxKGJl2k-33" style="edgeStyle=orthogonalEdgeStyle;rounded=0;orthogonalLoop=1;jettySize=auto;html=1;exitX=0;exitY=0.5;exitDx=0;exitDy=0;entryX=1;entryY=0.5;entryDx=0;entryDy=0;fontSize=10;" parent="1" source="V9b17PjdUef4UxKGJl2k-10" target="V9b17PjdUef4UxKGJl2k-32" edge="1">
          <mxGeometry relative="1" as="geometry">
            <Array as="points">
              <mxPoint x="-160" y="296.25" />
              <mxPoint x="-160" y="247.25" />
            </Array>
          </mxGeometry>
        </mxCell>
        <mxCell id="V9b17PjdUef4UxKGJl2k-38" style="edgeStyle=orthogonalEdgeStyle;rounded=0;orthogonalLoop=1;jettySize=auto;html=1;exitX=0;exitY=0.5;exitDx=0;exitDy=0;entryX=1;entryY=0.5;entryDx=0;entryDy=0;fontSize=10;" parent="1" source="V9b17PjdUef4UxKGJl2k-10" target="V9b17PjdUef4UxKGJl2k-31" edge="1">
          <mxGeometry relative="1" as="geometry">
            <Array as="points">
              <mxPoint x="-160" y="296.25" />
              <mxPoint x="-160" y="427.25" />
            </Array>
          </mxGeometry>
        </mxCell>
        <mxCell id="V9b17PjdUef4UxKGJl2k-10" value="ClientRepository" style="rounded=1;whiteSpace=wrap;html=1;" parent="1" vertex="1">
          <mxGeometry x="-140" y="266.25" width="120" height="60" as="geometry" />
        </mxCell>
        <mxCell id="V9b17PjdUef4UxKGJl2k-12" value="SetClient" style="rounded=0;whiteSpace=wrap;html=1;" parent="1" vertex="1">
          <mxGeometry x="-410" y="326.25" width="120" height="60" as="geometry" />
        </mxCell>
        <mxCell id="V9b17PjdUef4UxKGJl2k-14" value="GetClient" style="rounded=0;whiteSpace=wrap;html=1;" parent="1" vertex="1">
          <mxGeometry x="-410" y="397.5" width="120" height="60" as="geometry" />
        </mxCell>
        <mxCell id="V9b17PjdUef4UxKGJl2k-16" value="DeleteClient" style="rounded=0;whiteSpace=wrap;html=1;" parent="1" vertex="1">
          <mxGeometry x="-410" y="467.5" width="120" height="60" as="geometry" />
        </mxCell>
        <mxCell id="V9b17PjdUef4UxKGJl2k-18" value="clients" style="rounded=0;whiteSpace=wrap;html=1;" parent="1" vertex="1">
          <mxGeometry x="-245" y="341.25" width="70" height="30" as="geometry" />
        </mxCell>
        <mxCell id="V9b17PjdUef4UxKGJl2k-27" value="&lt;font style=&quot;font-size: 10px;&quot;&gt;{&lt;br&gt;&amp;nbsp; &amp;nbsp; username: (&lt;br&gt;&amp;nbsp; &amp;nbsp;&amp;nbsp;&amp;nbsp; &amp;nbsp;&amp;nbsp;WebSocketClientProtocol,&lt;br&gt;&amp;nbsp; &amp;nbsp;&amp;nbsp;&amp;nbsp; &amp;nbsp;&amp;nbsp;lastActive&lt;br&gt;&amp;nbsp; &amp;nbsp; )&lt;br&gt;}&lt;/font&gt;" style="rounded=0;whiteSpace=wrap;html=1;align=left;" parent="1" vertex="1">
          <mxGeometry x="-410" y="200" width="150" height="95" as="geometry" />
        </mxCell>
        <mxCell id="V9b17PjdUef4UxKGJl2k-39" style="edgeStyle=orthogonalEdgeStyle;rounded=0;orthogonalLoop=1;jettySize=auto;html=1;exitX=0;exitY=0.5;exitDx=0;exitDy=0;entryX=1;entryY=0.5;entryDx=0;entryDy=0;fontSize=10;" parent="1" source="V9b17PjdUef4UxKGJl2k-31" target="V9b17PjdUef4UxKGJl2k-14" edge="1">
          <mxGeometry relative="1" as="geometry" />
        </mxCell>
        <mxCell id="V9b17PjdUef4UxKGJl2k-40" style="edgeStyle=orthogonalEdgeStyle;rounded=0;orthogonalLoop=1;jettySize=auto;html=1;exitX=0;exitY=0.5;exitDx=0;exitDy=0;entryX=1;entryY=0.5;entryDx=0;entryDy=0;fontSize=10;" parent="1" source="V9b17PjdUef4UxKGJl2k-31" target="V9b17PjdUef4UxKGJl2k-12" edge="1">
          <mxGeometry relative="1" as="geometry" />
        </mxCell>
        <mxCell id="V9b17PjdUef4UxKGJl2k-41" style="edgeStyle=orthogonalEdgeStyle;rounded=0;orthogonalLoop=1;jettySize=auto;html=1;exitX=0;exitY=0.5;exitDx=0;exitDy=0;entryX=1;entryY=0.5;entryDx=0;entryDy=0;fontSize=10;" parent="1" source="V9b17PjdUef4UxKGJl2k-31" target="V9b17PjdUef4UxKGJl2k-16" edge="1">
          <mxGeometry relative="1" as="geometry" />
        </mxCell>
        <mxCell id="V9b17PjdUef4UxKGJl2k-42" style="edgeStyle=orthogonalEdgeStyle;rounded=0;orthogonalLoop=1;jettySize=auto;html=1;exitX=0.5;exitY=0;exitDx=0;exitDy=0;entryX=0.5;entryY=1;entryDx=0;entryDy=0;fontSize=10;" parent="1" source="V9b17PjdUef4UxKGJl2k-31" target="V9b17PjdUef4UxKGJl2k-18" edge="1">
          <mxGeometry relative="1" as="geometry" />
        </mxCell>
        <mxCell id="nox7CIe5ivODT0A3euPJ-45" style="edgeStyle=orthogonalEdgeStyle;rounded=0;orthogonalLoop=1;jettySize=auto;html=1;exitX=0.5;exitY=1;exitDx=0;exitDy=0;entryX=0.5;entryY=0;entryDx=0;entryDy=0;fontSize=9;" edge="1" parent="1" source="V9b17PjdUef4UxKGJl2k-31" target="nox7CIe5ivODT0A3euPJ-44">
          <mxGeometry relative="1" as="geometry" />
        </mxCell>
        <mxCell id="V9b17PjdUef4UxKGJl2k-31" value="Functions" style="rounded=0;whiteSpace=wrap;html=1;fontSize=10;" parent="1" vertex="1">
          <mxGeometry x="-240" y="408.75" width="60" height="37.5" as="geometry" />
        </mxCell>
        <mxCell id="V9b17PjdUef4UxKGJl2k-34" style="edgeStyle=orthogonalEdgeStyle;rounded=0;orthogonalLoop=1;jettySize=auto;html=1;exitX=0;exitY=0.5;exitDx=0;exitDy=0;entryX=1;entryY=0.5;entryDx=0;entryDy=0;fontSize=10;" parent="1" source="V9b17PjdUef4UxKGJl2k-32" target="V9b17PjdUef4UxKGJl2k-27" edge="1">
          <mxGeometry relative="1" as="geometry" />
        </mxCell>
        <mxCell id="V9b17PjdUef4UxKGJl2k-32" value="Data format" style="rounded=0;whiteSpace=wrap;html=1;fontSize=10;" parent="1" vertex="1">
          <mxGeometry x="-240" y="228.75" width="60" height="37.5" as="geometry" />
        </mxCell>
        <mxCell id="V9b17PjdUef4UxKGJl2k-44" value="&lt;h1&gt;Client repository&lt;/h1&gt;&lt;p&gt;This repository is used to store clients and thair latest activities&lt;/p&gt;" style="text;html=1;strokeColor=none;fillColor=none;spacing=5;spacingTop=-20;whiteSpace=wrap;overflow=hidden;rounded=0;fontSize=10;" parent="1" vertex="1">
          <mxGeometry x="-610" y="327.5" width="190" height="70" as="geometry" />
        </mxCell>
        <mxCell id="nox7CIe5ivODT0A3euPJ-3" style="edgeStyle=orthogonalEdgeStyle;rounded=0;orthogonalLoop=1;jettySize=auto;html=1;exitX=0;exitY=0.5;exitDx=0;exitDy=0;entryX=1;entryY=0.5;entryDx=0;entryDy=0;" edge="1" parent="1" source="V9b17PjdUef4UxKGJl2k-45" target="V9b17PjdUef4UxKGJl2k-66">
          <mxGeometry relative="1" as="geometry">
            <Array as="points">
              <mxPoint x="-160" y="677.5" />
              <mxPoint x="-160" y="597.5" />
            </Array>
          </mxGeometry>
        </mxCell>
        <mxCell id="nox7CIe5ivODT0A3euPJ-4" style="edgeStyle=orthogonalEdgeStyle;rounded=0;orthogonalLoop=1;jettySize=auto;html=1;exitX=0;exitY=0.5;exitDx=0;exitDy=0;entryX=1;entryY=0.5;entryDx=0;entryDy=0;" edge="1" parent="1" source="V9b17PjdUef4UxKGJl2k-45" target="nox7CIe5ivODT0A3euPJ-1">
          <mxGeometry relative="1" as="geometry" />
        </mxCell>
        <mxCell id="V9b17PjdUef4UxKGJl2k-45" value="MessageRepositroy" style="rounded=1;whiteSpace=wrap;html=1;" parent="1" vertex="1">
          <mxGeometry x="-140" y="647.5" width="120" height="60" as="geometry" />
        </mxCell>
        <mxCell id="V9b17PjdUef4UxKGJl2k-64" style="edgeStyle=orthogonalEdgeStyle;rounded=0;orthogonalLoop=1;jettySize=auto;html=1;exitX=0;exitY=0.5;exitDx=0;exitDy=0;entryX=1;entryY=0.5;entryDx=0;entryDy=0;fontSize=10;" parent="1" source="V9b17PjdUef4UxKGJl2k-63" target="V9b17PjdUef4UxKGJl2k-10" edge="1">
          <mxGeometry relative="1" as="geometry" />
        </mxCell>
        <mxCell id="V9b17PjdUef4UxKGJl2k-65" style="edgeStyle=orthogonalEdgeStyle;rounded=0;orthogonalLoop=1;jettySize=auto;html=1;exitX=0;exitY=0.5;exitDx=0;exitDy=0;entryX=1;entryY=0.5;entryDx=0;entryDy=0;fontSize=17;" parent="1" source="V9b17PjdUef4UxKGJl2k-63" target="V9b17PjdUef4UxKGJl2k-45" edge="1">
          <mxGeometry relative="1" as="geometry" />
        </mxCell>
        <mxCell id="V9b17PjdUef4UxKGJl2k-63" value="&lt;font style=&quot;font-size: 17px;&quot;&gt;Repositorys&lt;/font&gt;" style="rounded=0;whiteSpace=wrap;html=1;fontSize=10;" parent="1" vertex="1">
          <mxGeometry x="20" y="457.5" width="120" height="60" as="geometry" />
        </mxCell>
        <mxCell id="nox7CIe5ivODT0A3euPJ-18" style="edgeStyle=orthogonalEdgeStyle;rounded=0;orthogonalLoop=1;jettySize=auto;html=1;exitX=0;exitY=0.5;exitDx=0;exitDy=0;" edge="1" parent="1" source="V9b17PjdUef4UxKGJl2k-66" target="V9b17PjdUef4UxKGJl2k-67">
          <mxGeometry relative="1" as="geometry" />
        </mxCell>
        <mxCell id="V9b17PjdUef4UxKGJl2k-66" value="Data format" style="rounded=0;whiteSpace=wrap;html=1;fontSize=10;" parent="1" vertex="1">
          <mxGeometry x="-235" y="578.75" width="60" height="37.5" as="geometry" />
        </mxCell>
        <mxCell id="V9b17PjdUef4UxKGJl2k-67" value="&lt;font style=&quot;font-size: 10px;&quot;&gt;{&lt;br&gt;&amp;nbsp; &amp;nbsp;&quot;username&quot;: username,&lt;br&gt;&amp;nbsp; &amp;nbsp;&quot;timestamp&quot;: timestamp,&lt;br&gt;&amp;nbsp; &amp;nbsp;&quot;messageText&quot;: &quot;messageText&quot;&lt;br&gt;}&lt;/font&gt;" style="rounded=0;whiteSpace=wrap;html=1;align=left;" parent="1" vertex="1">
          <mxGeometry x="-413" y="550" width="150" height="95" as="geometry" />
        </mxCell>
        <mxCell id="nox7CIe5ivODT0A3euPJ-12" style="edgeStyle=orthogonalEdgeStyle;rounded=0;orthogonalLoop=1;jettySize=auto;html=1;exitX=0.5;exitY=0;exitDx=0;exitDy=0;entryX=0.5;entryY=1;entryDx=0;entryDy=0;" edge="1" parent="1" source="nox7CIe5ivODT0A3euPJ-1" target="nox7CIe5ivODT0A3euPJ-8">
          <mxGeometry relative="1" as="geometry" />
        </mxCell>
        <mxCell id="nox7CIe5ivODT0A3euPJ-14" style="edgeStyle=orthogonalEdgeStyle;rounded=0;orthogonalLoop=1;jettySize=auto;html=1;exitX=0;exitY=0.5;exitDx=0;exitDy=0;entryX=1;entryY=0.5;entryDx=0;entryDy=0;" edge="1" parent="1" source="nox7CIe5ivODT0A3euPJ-1" target="nox7CIe5ivODT0A3euPJ-5">
          <mxGeometry relative="1" as="geometry" />
        </mxCell>
        <mxCell id="nox7CIe5ivODT0A3euPJ-15" style="edgeStyle=orthogonalEdgeStyle;rounded=0;orthogonalLoop=1;jettySize=auto;html=1;exitX=0;exitY=0.5;exitDx=0;exitDy=0;" edge="1" parent="1" source="nox7CIe5ivODT0A3euPJ-1" target="nox7CIe5ivODT0A3euPJ-6">
          <mxGeometry relative="1" as="geometry" />
        </mxCell>
        <mxCell id="nox7CIe5ivODT0A3euPJ-16" style="edgeStyle=orthogonalEdgeStyle;rounded=0;orthogonalLoop=1;jettySize=auto;html=1;exitX=0;exitY=0.5;exitDx=0;exitDy=0;entryX=1;entryY=0.5;entryDx=0;entryDy=0;" edge="1" parent="1" source="nox7CIe5ivODT0A3euPJ-1" target="nox7CIe5ivODT0A3euPJ-7">
          <mxGeometry relative="1" as="geometry" />
        </mxCell>
        <mxCell id="nox7CIe5ivODT0A3euPJ-1" value="Functions" style="rounded=0;whiteSpace=wrap;html=1;fontSize=10;" vertex="1" parent="1">
          <mxGeometry x="-240" y="763.75" width="60" height="37.5" as="geometry" />
        </mxCell>
        <mxCell id="nox7CIe5ivODT0A3euPJ-5" value="SetMessage" style="rounded=0;whiteSpace=wrap;html=1;" vertex="1" parent="1">
          <mxGeometry x="-413" y="685" width="120" height="60" as="geometry" />
        </mxCell>
        <mxCell id="nox7CIe5ivODT0A3euPJ-6" value="GetMessage" style="rounded=0;whiteSpace=wrap;html=1;" vertex="1" parent="1">
          <mxGeometry x="-413" y="752.5" width="120" height="60" as="geometry" />
        </mxCell>
        <mxCell id="nox7CIe5ivODT0A3euPJ-7" value="DeleteMessage" style="rounded=0;whiteSpace=wrap;html=1;" vertex="1" parent="1">
          <mxGeometry x="-413" y="817.5" width="120" height="60" as="geometry" />
        </mxCell>
        <mxCell id="nox7CIe5ivODT0A3euPJ-8" value="messages" style="rounded=0;whiteSpace=wrap;html=1;" vertex="1" parent="1">
          <mxGeometry x="-245" y="702.5" width="70" height="30" as="geometry" />
        </mxCell>
        <mxCell id="nox7CIe5ivODT0A3euPJ-13" value="&lt;h1&gt;Message repository&lt;/h1&gt;&lt;p&gt;This repository stores chat messages&lt;/p&gt;" style="text;html=1;strokeColor=none;fillColor=none;spacing=5;spacingTop=-20;whiteSpace=wrap;overflow=hidden;rounded=0;fontSize=10;" vertex="1" parent="1">
          <mxGeometry x="-650" y="747.5" width="200" height="70" as="geometry" />
        </mxCell>
        <mxCell id="nox7CIe5ivODT0A3euPJ-26" style="edgeStyle=orthogonalEdgeStyle;rounded=0;orthogonalLoop=1;jettySize=auto;html=1;exitX=0;exitY=0.5;exitDx=0;exitDy=0;entryX=1;entryY=0.5;entryDx=0;entryDy=0;fontSize=14;" edge="1" parent="1" source="nox7CIe5ivODT0A3euPJ-20" target="nox7CIe5ivODT0A3euPJ-23">
          <mxGeometry relative="1" as="geometry" />
        </mxCell>
        <mxCell id="nox7CIe5ivODT0A3euPJ-27" style="edgeStyle=orthogonalEdgeStyle;rounded=0;orthogonalLoop=1;jettySize=auto;html=1;exitX=0;exitY=0.5;exitDx=0;exitDy=0;entryX=1;entryY=0.5;entryDx=0;entryDy=0;fontSize=14;" edge="1" parent="1" source="nox7CIe5ivODT0A3euPJ-20" target="nox7CIe5ivODT0A3euPJ-21">
          <mxGeometry relative="1" as="geometry" />
        </mxCell>
        <mxCell id="nox7CIe5ivODT0A3euPJ-20" value="&lt;font style=&quot;font-size: 17px;&quot;&gt;Websocket worker &#39;API&#39;&lt;/font&gt;" style="rounded=0;whiteSpace=wrap;html=1;fontSize=10;" vertex="1" parent="1">
          <mxGeometry x="20" y="960" width="120" height="60" as="geometry" />
        </mxCell>
        <mxCell id="nox7CIe5ivODT0A3euPJ-31" style="edgeStyle=orthogonalEdgeStyle;rounded=0;orthogonalLoop=1;jettySize=auto;html=1;exitX=0;exitY=0.5;exitDx=0;exitDy=0;entryX=1;entryY=0.5;entryDx=0;entryDy=0;fontSize=14;" edge="1" parent="1" source="nox7CIe5ivODT0A3euPJ-21" target="nox7CIe5ivODT0A3euPJ-30">
          <mxGeometry relative="1" as="geometry" />
        </mxCell>
        <mxCell id="nox7CIe5ivODT0A3euPJ-21" value="&lt;font style=&quot;font-size: 14px;&quot;&gt;RegNewUser&lt;/font&gt;" style="rounded=1;whiteSpace=wrap;html=1;" vertex="1" parent="1">
          <mxGeometry x="-140" y="1010" width="120" height="60" as="geometry" />
        </mxCell>
        <mxCell id="nox7CIe5ivODT0A3euPJ-29" style="edgeStyle=orthogonalEdgeStyle;rounded=0;orthogonalLoop=1;jettySize=auto;html=1;exitX=0;exitY=0.5;exitDx=0;exitDy=0;entryX=1;entryY=0.5;entryDx=0;entryDy=0;fontSize=14;" edge="1" parent="1" source="nox7CIe5ivODT0A3euPJ-23" target="nox7CIe5ivODT0A3euPJ-28">
          <mxGeometry relative="1" as="geometry" />
        </mxCell>
        <mxCell id="nox7CIe5ivODT0A3euPJ-23" value="&lt;font style=&quot;font-size: 14px;&quot;&gt;SendMessage&lt;/font&gt;" style="rounded=1;whiteSpace=wrap;html=1;" vertex="1" parent="1">
          <mxGeometry x="-140" y="910" width="120" height="60" as="geometry" />
        </mxCell>
        <mxCell id="nox7CIe5ivODT0A3euPJ-36" style="edgeStyle=orthogonalEdgeStyle;rounded=0;orthogonalLoop=1;jettySize=auto;html=1;exitX=0;exitY=0.5;exitDx=0;exitDy=0;fontSize=9;" edge="1" parent="1" source="nox7CIe5ivODT0A3euPJ-28" target="nox7CIe5ivODT0A3euPJ-35">
          <mxGeometry relative="1" as="geometry" />
        </mxCell>
        <mxCell id="nox7CIe5ivODT0A3euPJ-28" value="Data format" style="rounded=0;whiteSpace=wrap;html=1;fontSize=10;" vertex="1" parent="1">
          <mxGeometry x="-235" y="921.25" width="60" height="37.5" as="geometry" />
        </mxCell>
        <mxCell id="nox7CIe5ivODT0A3euPJ-34" style="edgeStyle=orthogonalEdgeStyle;rounded=0;orthogonalLoop=1;jettySize=auto;html=1;exitX=0;exitY=0.5;exitDx=0;exitDy=0;fontSize=9;" edge="1" parent="1" source="nox7CIe5ivODT0A3euPJ-30" target="nox7CIe5ivODT0A3euPJ-33">
          <mxGeometry relative="1" as="geometry" />
        </mxCell>
        <mxCell id="nox7CIe5ivODT0A3euPJ-30" value="Data format" style="rounded=0;whiteSpace=wrap;html=1;fontSize=10;" vertex="1" parent="1">
          <mxGeometry x="-235" y="1021.25" width="60" height="37.5" as="geometry" />
        </mxCell>
        <mxCell id="nox7CIe5ivODT0A3euPJ-33" value="&lt;font style=&quot;font-size: 9px;&quot;&gt;RegNewUser username=&quot;Username&quot;&lt;/font&gt;" style="rounded=0;whiteSpace=wrap;html=1;fontSize=14;" vertex="1" parent="1">
          <mxGeometry x="-440" y="1010" width="170" height="60" as="geometry" />
        </mxCell>
        <mxCell id="nox7CIe5ivODT0A3euPJ-35" value="&lt;font size=&quot;1&quot;&gt;SendMessage message=&quot;TextMsg&quot;&lt;/font&gt;" style="rounded=0;whiteSpace=wrap;html=1;fontSize=14;" vertex="1" parent="1">
          <mxGeometry x="-440" y="910" width="170" height="60" as="geometry" />
        </mxCell>
        <mxCell id="nox7CIe5ivODT0A3euPJ-37" value="" style="endArrow=none;dashed=1;html=1;dashPattern=1 3;strokeWidth=2;rounded=0;fontSize=9;" edge="1" parent="1">
          <mxGeometry width="50" height="50" relative="1" as="geometry">
            <mxPoint x="-750" y="890" as="sourcePoint" />
            <mxPoint y="890" as="targetPoint" />
          </mxGeometry>
        </mxCell>
        <mxCell id="nox7CIe5ivODT0A3euPJ-42" style="edgeStyle=orthogonalEdgeStyle;rounded=0;orthogonalLoop=1;jettySize=auto;html=1;exitX=0.5;exitY=1;exitDx=0;exitDy=0;entryX=0.5;entryY=0;entryDx=0;entryDy=0;fontSize=9;" edge="1" parent="1" source="nox7CIe5ivODT0A3euPJ-38" target="nox7CIe5ivODT0A3euPJ-40">
          <mxGeometry relative="1" as="geometry" />
        </mxCell>
        <mxCell id="nox7CIe5ivODT0A3euPJ-38" value="&lt;span style=&quot;font-size: 17px;&quot;&gt;Scripts&lt;/span&gt;" style="rounded=0;whiteSpace=wrap;html=1;fontSize=10;" vertex="1" parent="1">
          <mxGeometry x="229" y="1040" width="120" height="60" as="geometry" />
        </mxCell>
        <mxCell id="nox7CIe5ivODT0A3euPJ-40" value="&lt;font style=&quot;font-size: 14px;&quot;&gt;CheckUser&lt;/font&gt;" style="rounded=1;whiteSpace=wrap;html=1;" vertex="1" parent="1">
          <mxGeometry x="229" y="1169" width="120" height="60" as="geometry" />
        </mxCell>
        <mxCell id="nox7CIe5ivODT0A3euPJ-44" value="updateActive" style="rounded=0;whiteSpace=wrap;html=1;" vertex="1" parent="1">
          <mxGeometry x="-247.5" y="471.25" width="75" height="32.5" as="geometry" />
        </mxCell>
        <mxCell id="nox7CIe5ivODT0A3euPJ-46" value="&lt;h1&gt;Check user&lt;/h1&gt;&lt;p&gt;Checks the user&#39;s last active. If it was more than 30 minutes ago, deletes it.&lt;/p&gt;" style="text;html=1;strokeColor=none;fillColor=none;spacing=5;spacingTop=-20;whiteSpace=wrap;overflow=hidden;rounded=0;fontSize=9;" vertex="1" parent="1">
          <mxGeometry x="229" y="1240" width="120" height="90" as="geometry" />
        </mxCell>
        <mxCell id="nox7CIe5ivODT0A3euPJ-52" style="edgeStyle=orthogonalEdgeStyle;rounded=0;orthogonalLoop=1;jettySize=auto;html=1;exitX=1;exitY=0.5;exitDx=0;exitDy=0;entryX=0;entryY=0.5;entryDx=0;entryDy=0;fontSize=9;" edge="1" parent="1" source="nox7CIe5ivODT0A3euPJ-48" target="nox7CIe5ivODT0A3euPJ-50">
          <mxGeometry relative="1" as="geometry" />
        </mxCell>
        <mxCell id="nox7CIe5ivODT0A3euPJ-48" value="&lt;font style=&quot;font-size: 17px;&quot;&gt;Templates&lt;/font&gt;" style="rounded=0;whiteSpace=wrap;html=1;fontSize=10;" vertex="1" parent="1">
          <mxGeometry x="650" y="217.5" width="120" height="60" as="geometry" />
        </mxCell>
        <mxCell id="nox7CIe5ivODT0A3euPJ-50" value="main.html" style="rounded=1;whiteSpace=wrap;html=1;" vertex="1" parent="1">
          <mxGeometry x="860" y="217.5" width="120" height="60" as="geometry" />
        </mxCell>
        <mxCell id="nox7CIe5ivODT0A3euPJ-66" style="edgeStyle=orthogonalEdgeStyle;rounded=0;orthogonalLoop=1;jettySize=auto;html=1;exitX=1;exitY=0.5;exitDx=0;exitDy=0;entryX=0;entryY=0.5;entryDx=0;entryDy=0;fontSize=9;" edge="1" parent="1" source="nox7CIe5ivODT0A3euPJ-55" target="nox7CIe5ivODT0A3euPJ-57">
          <mxGeometry relative="1" as="geometry" />
        </mxCell>
        <mxCell id="nox7CIe5ivODT0A3euPJ-70" style="edgeStyle=orthogonalEdgeStyle;rounded=0;orthogonalLoop=1;jettySize=auto;html=1;exitX=1;exitY=0.5;exitDx=0;exitDy=0;entryX=0;entryY=0.5;entryDx=0;entryDy=0;fontSize=9;" edge="1" parent="1" source="nox7CIe5ivODT0A3euPJ-55" target="nox7CIe5ivODT0A3euPJ-69">
          <mxGeometry relative="1" as="geometry" />
        </mxCell>
        <mxCell id="nox7CIe5ivODT0A3euPJ-55" value="&lt;span style=&quot;font-size: 17px;&quot;&gt;Websocket Frontend Worker&lt;/span&gt;" style="rounded=0;whiteSpace=wrap;html=1;fontSize=10;" vertex="1" parent="1">
          <mxGeometry x="650" y="490" width="120" height="60" as="geometry" />
        </mxCell>
        <mxCell id="nox7CIe5ivODT0A3euPJ-65" style="edgeStyle=orthogonalEdgeStyle;rounded=0;orthogonalLoop=1;jettySize=auto;html=1;exitX=1;exitY=0.5;exitDx=0;exitDy=0;entryX=0;entryY=0.5;entryDx=0;entryDy=0;fontSize=9;" edge="1" parent="1" source="nox7CIe5ivODT0A3euPJ-57" target="nox7CIe5ivODT0A3euPJ-59">
          <mxGeometry relative="1" as="geometry" />
        </mxCell>
        <mxCell id="nox7CIe5ivODT0A3euPJ-57" value="checkAuthUser" style="rounded=1;whiteSpace=wrap;html=1;" vertex="1" parent="1">
          <mxGeometry x="850" y="371.25" width="120" height="60" as="geometry" />
        </mxCell>
        <mxCell id="nox7CIe5ivODT0A3euPJ-62" style="edgeStyle=orthogonalEdgeStyle;rounded=0;orthogonalLoop=1;jettySize=auto;html=1;exitX=0.5;exitY=0;exitDx=0;exitDy=0;entryX=0;entryY=0.5;entryDx=0;entryDy=0;fontSize=9;" edge="1" parent="1" source="nox7CIe5ivODT0A3euPJ-59" target="nox7CIe5ivODT0A3euPJ-60">
          <mxGeometry relative="1" as="geometry" />
        </mxCell>
        <mxCell id="nox7CIe5ivODT0A3euPJ-63" style="edgeStyle=orthogonalEdgeStyle;rounded=0;orthogonalLoop=1;jettySize=auto;html=1;exitX=0.5;exitY=1;exitDx=0;exitDy=0;entryX=0;entryY=0.5;entryDx=0;entryDy=0;fontSize=9;" edge="1" parent="1" source="nox7CIe5ivODT0A3euPJ-59" target="nox7CIe5ivODT0A3euPJ-61">
          <mxGeometry relative="1" as="geometry" />
        </mxCell>
        <mxCell id="nox7CIe5ivODT0A3euPJ-59" value="if auth" style="rhombus;whiteSpace=wrap;html=1;fontSize=9;" vertex="1" parent="1">
          <mxGeometry x="1020" y="361.25" width="80" height="80" as="geometry" />
        </mxCell>
        <mxCell id="nox7CIe5ivODT0A3euPJ-60" value="getChat" style="rounded=1;whiteSpace=wrap;html=1;fontSize=9;" vertex="1" parent="1">
          <mxGeometry x="1110" y="301.25" width="120" height="60" as="geometry" />
        </mxCell>
        <mxCell id="nox7CIe5ivODT0A3euPJ-64" style="edgeStyle=orthogonalEdgeStyle;rounded=0;orthogonalLoop=1;jettySize=auto;html=1;exitX=1;exitY=0.5;exitDx=0;exitDy=0;entryX=1;entryY=0.5;entryDx=0;entryDy=0;fontSize=9;" edge="1" parent="1" source="nox7CIe5ivODT0A3euPJ-61" target="nox7CIe5ivODT0A3euPJ-60">
          <mxGeometry relative="1" as="geometry">
            <Array as="points">
              <mxPoint x="1280" y="474" />
              <mxPoint x="1280" y="331" />
            </Array>
          </mxGeometry>
        </mxCell>
        <mxCell id="nox7CIe5ivODT0A3euPJ-61" value="getFormReg" style="rounded=1;whiteSpace=wrap;html=1;fontSize=9;" vertex="1" parent="1">
          <mxGeometry x="1110" y="443.75" width="120" height="60" as="geometry" />
        </mxCell>
        <mxCell id="nox7CIe5ivODT0A3euPJ-69" value="sendMessage" style="rounded=1;whiteSpace=wrap;html=1;" vertex="1" parent="1">
          <mxGeometry x="850" y="625" width="120" height="60" as="geometry" />
        </mxCell>
      </root>
    </mxGraphModel>
  </diagram>
</mxfile>
